<?xml version="1.0" encoding="utf-8"?>
<svg version="1.1" xmlns="http://www.w3.org/2000/svg" xmlns:xlink="http://www.w3.org/1999/xlink" x="0px"
	 y="0px" width="34px" height="34px" viewBox="0 0 34 34" enable-background="new 0 0 34 34" xml:space="preserve">
	<path fill="#BABABA" d="M26.4,27.5H8c-0.9,0-1.7-0.8-1.7-1.7V7.5c0-0.9,0.8-1.7,1.7-1.7h18.4c0.9,0,1.7,0.8,1.7,1.7v18.4
		C28.1,26.8,27.3,27.5,26.4,27.5z M8.9,25h16.7V8.3H8.9V25z"/>
	<path fill="#146AF0" d="M22,22.9h-9.5c-0.8,0-1.5-0.7-1.5-1.5v-9.5c0-0.8,0.7-1.5,1.5-1.5H22c0.8,0,1.5,0.7,1.5,1.5v9.5
		C23.5,22.3,22.8,22.9,22,22.9z M13.5,20.4H21v-7.5h-7.5V20.4z"/>
	<path fill="#B9B9B9" d="M14,6.7h-1.5V3.3H14V6.7z M18,0.4h-1.5v6.2H18V0.4z M22,3.3h-1.5v3.4H22V3.3z"/>
	<path fill="#B9B9B9" d="M14,30.7h-1.5v-3.4H14V30.7z M18,27.3h-1.5v6.2H18V27.3z M22,27.3h-1.5v3.4H22V27.3z"/>
	<path fill="#B9B9B9" d="M30.5,13.4h-3.4v-1.5h3.4V13.4z M33.3,15.9h-6.2v1.5h6.2V15.9z M30.5,20h-3.4v1.5h3.4V20z"/>
	<path fill="#B9B9B9" d="M6.9,13.4H3.5v-1.5h3.4V13.4z M6.9,15.9H0.7v1.5h6.2V15.9z M6.9,20H3.5v1.5h3.4V20z"/>
</svg>
