<?xml version="1.0" encoding="utf-8"?>
<!-- Generator: Adobe Illustrator 24.0.2, SVG Export Plug-In . SVG Version: 6.00 Build 0)  -->
<svg version="1.1" id="레이어_1" xmlns="http://www.w3.org/2000/svg" xmlns:xlink="http://www.w3.org/1999/xlink" x="0px"
	 y="0px" width="35px" height="38px" viewBox="0 0 35 38" enable-background="new 0 0 35 38" xml:space="preserve">
<path fill="none" stroke="#BBBBBB" stroke-width="2.5" stroke-linecap="round" stroke-linejoin="round" stroke-miterlimit="10" d="
	M27.4,9.4c-0.1,0-0.3,0-0.4,0C27,9,27.1,8.6,27.1,8.2c0-3.6-2.9-6.5-6.5-6.5c-3.1,0-5.6,2.1-6.3,5c-0.8-0.6-1.8-0.9-2.9-0.9
	c-1.2,0-2.3,0.4-3.2,1.1c-1.1,0.9-1.8,2.3-1.8,3.9c0,0.3,0,0.7,0.1,1c-0.2,0-0.4,0-0.6,0c-2.3,0-4.2,1.9-4.2,4.2
	c0,2.3,1.9,4.2,4.2,4.2h21.4c2.9,0,5.3-2.4,5.3-5.3S30.3,9.4,27.4,9.4z"/>
<line fill="none" stroke="#146AF0" stroke-width="2.5" stroke-linejoin="round" stroke-miterlimit="10" stroke-dasharray="2,2,2,2,2,2" x1="17.7" y1="22.6" x2="17.7" y2="37.6"/>
<line fill="none" stroke="#146AF0" stroke-width="2.5" stroke-linejoin="round" stroke-miterlimit="10" stroke-dasharray="2,2,2,2,2,2" x1="12" y1="23.7" x2="1.7" y2="34"/>
<line fill="none" stroke="#146AF0" stroke-width="2.5" stroke-linejoin="round" stroke-miterlimit="10" stroke-dasharray="2,2,2,2,2,2" x1="23.4" y1="23.7" x2="33.6" y2="34"/>
</svg>
