<?xml version="1.0" encoding="utf-8"?>
<!-- Generator: Adobe Illustrator 24.0.2, SVG Export Plug-In . SVG Version: 6.00 Build 0)  -->
<svg version="1.1" id="레이어_1" xmlns="http://www.w3.org/2000/svg" xmlns:xlink="http://www.w3.org/1999/xlink" x="0px"
	 y="0px" width="36px" height="31px" viewBox="0 0 36 31" enable-background="new 0 0 36 31" xml:space="preserve">
<line fill="none" stroke="#146AF0" stroke-width="2.5" stroke-miterlimit="10" x1="16.4" y1="15.8" x2="16.4" y2="3.8"/>
<path fill="none" stroke="#146AF0" stroke-width="2.5" stroke-miterlimit="10" d="M1.4,3.8v14.3c0,1.5,3.4,2.7,7.5,2.7"/>
<g>
	<path fill="none" stroke="#146AF0" stroke-width="1.5" stroke-miterlimit="10" d="M16.2,13.6"/>
	<path fill="none" stroke="#146AF0" stroke-width="1.5" stroke-miterlimit="10" d="M8.7,16.3c0.7,0,1.3,0,1.9-0.1"/>
	<path fill="none" stroke="#146AF0" stroke-width="1.5" stroke-miterlimit="10" d="M1.2,13.6c0,1.5,3.4,2.7,7.5,2.7"/>
</g>
<g>
	<path fill="none" stroke="#146AF0" stroke-width="1.5" stroke-miterlimit="10" d="M8.7,11.9c4.1,0,7.5-1.2,7.5-2.7"/>
	<path fill="none" stroke="#146AF0" stroke-width="1.5" stroke-miterlimit="10" d="M1.2,9.1c0,1.5,3.4,2.7,7.5,2.7"/>
</g>
<ellipse fill="none" stroke="#146AF0" stroke-width="2.5" stroke-linejoin="round" stroke-miterlimit="10" cx="8.9" cy="4.2" rx="7.5" ry="2.5"/>
<path fill="none" stroke="#BBBBBB" stroke-width="2.5" stroke-linecap="round" stroke-linejoin="round" stroke-miterlimit="10" d="
	M29.4,18.9c-0.1,0-0.3,0-0.4,0c0.1-0.4,0.1-0.8,0.1-1.2c0-3.5-2.8-6.4-6.3-6.4c-3,0-5.5,2.1-6.1,4.8c-0.8-0.6-1.8-0.9-2.8-0.9
	c-1.2,0-2.2,0.4-3.1,1.1C9.7,17.3,9,18.6,9,20.1c0,0.3,0,0.6,0.1,1c-0.2,0-0.4,0-0.6,0c-2.3,0-4.1,1.8-4.1,4.1
	c0,2.3,1.8,4.1,4.1,4.1h20.9c2.9,0,5.2-2.3,5.2-5.2S32.3,18.9,29.4,18.9z"/>
</svg>
