<?xml version="1.0" encoding="utf-8"?>
<svg version="1.1" xmlns="http://www.w3.org/2000/svg" xmlns:xlink="http://www.w3.org/1999/xlink" x="0px"
	 y="0px" width="32px" height="32px" viewBox="0 0 32 32" enable-background="new 0 0 32 32" xml:space="preserve">
<path fill="none" stroke="#146AF0" stroke-width="2.5" stroke-miterlimit="10" d="M19,13.1c-1.6,1.9-4.4,2.3-6.3,0.7
	S10.4,9.4,12,7.4s4.4-2.3,6.3-0.7S20.6,11.1,19,13.1z"/>
<path fill="none" stroke="#146AF0" stroke-width="1.5" stroke-miterlimit="10" d="M12.8,14.2l-4.1,5.1"/>
<path fill="none" stroke="#BBBBBB" stroke-width="2.5" stroke-miterlimit="10" d="M28,30c-2.1,1.4-4.9,0.8-6.2-1.2
	c-1.4-2.1-0.8-4.9,1.2-6.2c2.1-1.4,4.9-0.8,6.2,1.2C30.6,25.8,30.1,28.6,28,30z"/>
<path fill="none" stroke="#BBBBBB" stroke-width="1.5" stroke-miterlimit="10" d="M23.3,22.3l-3.8-5.6"/>
<path fill="none" stroke="#BBBBBB" stroke-width="2.5" stroke-miterlimit="10" d="M6.5,21.8c2.5,0,4.5,2,4.5,4.5s-2,4.5-4.5,4.5
	S2,28.7,2,26.3S4,21.8,6.5,21.8z"/>
<path fill="none" stroke="#BBBBBB" stroke-width="1.5" stroke-miterlimit="10" d="M11.5,26.3h7"/>
</svg>
