<?xml version="1.0" encoding="utf-8"?>
<svg version="1.1" xmlns="http://www.w3.org/2000/svg" xmlns:xlink="http://www.w3.org/1999/xlink" x="0px"
	 y="0px" width="34px" height="34px" viewBox="0 0 34 34" enable-background="new 0 0 34 34" xml:space="preserve">
<path fill="#1A6EEB" d="M10.6,31.2L9,29.5l5-5l0.7,0.2c2.9,0.9,6,0.1,8.1-2c1.8-1.8,2.6-4.3,2.3-6.7l-4.7,4.7l-5.6-1.5l-1.5-5.6
	l4.7-4.7c-2.4-0.3-4.9,0.5-6.7,2.3c-2.1,2.1-2.9,5.2-2,8.1L9.5,20l-5,5l-1.7-1.7l4-4c-0.8-3.5,0.2-7.2,2.8-9.8
	c2.9-2.9,7.3-3.8,11.1-2.4l1.7,0.6L16,14.3l0.8,3l3,0.8l6.5-6.5l0.6,1.7c1.4,3.8,0.5,8.2-2.4,11.1c-2.6,2.6-6.3,3.6-9.8,2.8
	L10.6,31.2z"/>
<path fill="#B8B8B8" d="M17,33.3c-4.3,0-8.4-1.7-11.5-4.8C2.4,25.4,0.8,21.3,0.8,17c0-4.3,1.7-8.4,4.8-11.5C8.6,2.4,12.7,0.7,17,0.7
	c4.3,0,8.4,1.7,11.5,4.8c6.3,6.3,6.3,16.6,0,23C25.4,31.6,21.3,33.3,17,33.3z M17,3.1c-3.7,0-7.2,1.4-9.8,4.1
	C4.5,9.8,3.1,13.3,3.1,17c0,3.7,1.4,7.2,4.1,9.8c2.6,2.6,6.1,4.1,9.8,4.1c3.7,0,7.2-1.4,9.8-4.1c5.4-5.4,5.4-14.2,0-19.7
	C24.2,4.5,20.7,3.1,17,3.1z"/>
</svg>
