<?xml version="1.0" encoding="utf-8"?>
<svg version="1.1" xmlns="http://www.w3.org/2000/svg" xmlns:xlink="http://www.w3.org/1999/xlink" x="0px"
	 y="0px" width="34px" height="34px" viewBox="0 0 34 34" enable-background="new 0 0 34 34" xml:space="preserve">
<path fill="#B8B8B8" d="M17,31.1v-2.3c4.7,0,8.5-3.8,8.5-8.5v-8.6c0-4.7-3.8-8.5-8.5-8.5c-4.7,0-8.5,3.8-8.5,8.5v8.6H6.1v-8.6
	C6.1,5.6,11,0.7,17,0.7s10.9,4.9,10.9,10.9v8.6C27.9,26.2,23,31.1,17,31.1z"/>
<path fill="#B8B8B8" d="M14.8,33.3c-1.9,0-3.4-1.5-3.4-3.4c0-1.9,1.5-3.4,3.4-3.4c1.9,0,3.4,1.5,3.4,3.4
	C18.2,31.8,16.7,33.3,14.8,33.3z M14.8,28.9c-0.6,0-1,0.5-1,1c0,0.6,0.5,1,1,1c0.6,0,1-0.5,1-1C15.8,29.4,15.4,28.9,14.8,28.9z"/>
<path fill="#1A6EEB" d="M4.7,24.1c-2.1,0-3.7-1.7-3.7-3.7v-6.7c0-2.1,1.7-3.7,3.7-3.7c2.1,0,3.7,1.7,3.7,3.7v6.7
	C8.5,22.4,6.8,24.1,4.7,24.1z M4.7,12.3c-0.8,0-1.4,0.6-1.4,1.4v6.7c0,0.8,0.6,1.4,1.4,1.4c0.8,0,1.4-0.6,1.4-1.4v-6.7
	C6.1,12.9,5.5,12.3,4.7,12.3z"/>
<path fill="#1A6EEB" d="M29.3,24.1c-2.1,0-3.7-1.7-3.7-3.7v-6.7c0-2.1,1.7-3.7,3.7-3.7c2.1,0,3.7,1.7,3.7,3.7v6.7
	C33,22.4,31.3,24.1,29.3,24.1z M29.3,12.3c-0.8,0-1.4,0.6-1.4,1.4v6.7c0,0.8,0.6,1.4,1.4,1.4c0.8,0,1.4-0.6,1.4-1.4v-6.7
	C30.7,12.9,30,12.3,29.3,12.3z"/>
</svg>
